<svg width="864" height="587" viewBox="0 0 864 587" fill="none" xmlns="http://www.w3.org/2000/svg">
<path d="M314.617 571.246C313.861 571.246 313.367 570.926 313.135 570.287L303.544 548.141C303.427 547.908 303.253 547.792 303.021 547.792H299.359C299.068 547.792 298.923 547.937 298.923 548.228V569.938C298.923 570.345 298.806 570.665 298.574 570.897C298.341 571.13 298.022 571.246 297.615 571.246H283.839C283.432 571.246 283.112 571.13 282.88 570.897C282.647 570.665 282.531 570.345 282.531 569.938V511.521C282.531 511.114 282.647 510.794 282.88 510.562C283.112 510.329 283.432 510.213 283.839 510.213H310.257C314.21 510.213 317.669 511.027 320.633 512.654C323.656 514.282 325.981 516.578 327.608 519.542C329.294 522.448 330.137 525.82 330.137 529.656C330.137 533.493 329.178 536.864 327.26 539.77C325.399 542.619 322.813 544.711 319.5 546.048C319.209 546.164 319.122 546.368 319.238 546.658L330.311 569.677C330.427 570.025 330.486 570.229 330.486 570.287C330.486 570.578 330.369 570.81 330.137 570.985C329.904 571.159 329.614 571.246 329.265 571.246H314.617ZM299.359 524.25C299.068 524.25 298.923 524.396 298.923 524.686V534.888C298.923 535.178 299.068 535.324 299.359 535.324H307.554C309.415 535.324 310.926 534.83 312.088 533.841C313.251 532.795 313.832 531.458 313.832 529.831C313.832 528.145 313.251 526.808 312.088 525.82C310.926 524.774 309.415 524.25 307.554 524.25H299.359ZM385.61 522.943C385.61 523.349 385.494 523.669 385.262 523.902C385.029 524.134 384.709 524.25 384.302 524.25H358.233C357.942 524.25 357.797 524.396 357.797 524.686V532.882C357.797 533.173 357.942 533.318 358.233 533.318H374.363C374.77 533.318 375.089 533.434 375.322 533.667C375.554 533.9 375.671 534.219 375.671 534.626V545.961C375.671 546.368 375.554 546.687 375.322 546.92C375.089 547.152 374.77 547.269 374.363 547.269H358.233C357.942 547.269 357.797 547.414 357.797 547.705V556.772C357.797 557.063 357.942 557.208 358.233 557.208H384.302C384.709 557.208 385.029 557.325 385.262 557.557C385.494 557.79 385.61 558.109 385.61 558.516V569.938C385.61 570.345 385.494 570.665 385.262 570.897C385.029 571.13 384.709 571.246 384.302 571.246H342.713C342.306 571.246 341.986 571.13 341.754 570.897C341.521 570.665 341.405 570.345 341.405 569.938V511.521C341.405 511.114 341.521 510.794 341.754 510.562C341.986 510.329 342.306 510.213 342.713 510.213H384.302C384.709 510.213 385.029 510.329 385.262 510.562C385.494 510.794 385.61 511.114 385.61 511.521V522.943ZM419.642 571.944C414.875 571.944 410.661 571.014 406.999 569.154C403.395 567.293 400.576 564.678 398.542 561.306C396.565 557.877 395.577 553.924 395.577 549.448V531.836C395.577 527.418 396.565 523.524 398.542 520.152C400.576 516.781 403.395 514.165 406.999 512.305C410.661 510.445 414.875 509.515 419.642 509.515C424.408 509.515 428.593 510.387 432.197 512.131C435.859 513.875 438.678 516.345 440.655 519.542C442.689 522.681 443.706 526.343 443.706 530.528C443.706 531.051 443.27 531.371 442.399 531.487L428.623 532.359H428.361C427.663 532.359 427.315 532.039 427.315 531.4C427.315 529.017 426.617 527.128 425.222 525.733C423.827 524.279 421.967 523.553 419.642 523.553C417.317 523.553 415.457 524.279 414.062 525.733C412.667 527.128 411.969 529.017 411.969 531.4V550.146C411.969 552.471 412.667 554.36 414.062 555.813C415.457 557.208 417.317 557.906 419.642 557.906C421.967 557.906 423.827 557.208 425.222 555.813C426.617 554.36 427.315 552.471 427.315 550.146C427.315 549.797 427.431 549.536 427.663 549.361C427.896 549.187 428.216 549.129 428.623 549.187L442.399 549.884C443.27 549.943 443.706 550.233 443.706 550.756C443.706 554.941 442.689 558.633 440.655 561.83C438.678 565.027 435.859 567.526 432.197 569.328C428.593 571.072 424.408 571.944 419.642 571.944ZM456.033 571.246C455.626 571.246 455.306 571.13 455.074 570.897C454.841 570.665 454.725 570.345 454.725 569.938V511.521C454.725 511.114 454.841 510.794 455.074 510.562C455.306 510.329 455.626 510.213 456.033 510.213H469.809C470.216 510.213 470.536 510.329 470.768 510.562C471.001 510.794 471.117 511.114 471.117 511.521V569.938C471.117 570.345 471.001 570.665 470.768 570.897C470.536 571.13 470.216 571.246 469.809 571.246H456.033ZM527.235 522.943C527.235 523.349 527.119 523.669 526.886 523.902C526.654 524.134 526.334 524.25 525.927 524.25H499.944C499.654 524.25 499.508 524.396 499.508 524.686V532.882C499.508 533.173 499.654 533.318 499.944 533.318H516.075C516.481 533.318 516.801 533.434 517.034 533.667C517.266 533.9 517.382 534.219 517.382 534.626V545.961C517.382 546.368 517.266 546.687 517.034 546.92C516.801 547.152 516.481 547.269 516.075 547.269H499.944C499.654 547.269 499.508 547.414 499.508 547.705V569.938C499.508 570.345 499.392 570.665 499.16 570.897C498.927 571.13 498.607 571.246 498.2 571.246H484.424C484.018 571.246 483.698 571.13 483.465 570.897C483.233 570.665 483.117 570.345 483.117 569.938V511.521C483.117 511.114 483.233 510.794 483.465 510.562C483.698 510.329 484.018 510.213 484.424 510.213H525.927C526.334 510.213 526.654 510.329 526.886 510.562C527.119 510.794 527.235 511.114 527.235 511.521V522.943ZM580.832 522.943C580.832 523.349 580.716 523.669 580.483 523.902C580.251 524.134 579.931 524.25 579.524 524.25H553.454C553.163 524.25 553.018 524.396 553.018 524.686V532.882C553.018 533.173 553.163 533.318 553.454 533.318H569.584C569.991 533.318 570.311 533.434 570.543 533.667C570.776 533.9 570.892 534.219 570.892 534.626V545.961C570.892 546.368 570.776 546.687 570.543 546.92C570.311 547.152 569.991 547.269 569.584 547.269H553.454C553.163 547.269 553.018 547.414 553.018 547.705V556.772C553.018 557.063 553.163 557.208 553.454 557.208H579.524C579.931 557.208 580.251 557.325 580.483 557.557C580.716 557.79 580.832 558.109 580.832 558.516V569.938C580.832 570.345 580.716 570.665 580.483 570.897C580.251 571.13 579.931 571.246 579.524 571.246H537.934C537.527 571.246 537.208 571.13 536.975 570.897C536.743 570.665 536.626 570.345 536.626 569.938V511.521C536.626 511.114 536.743 510.794 536.975 510.562C537.208 510.329 537.527 510.213 537.934 510.213H579.524C579.931 510.213 580.251 510.329 580.483 510.562C580.716 510.794 580.832 511.114 580.832 511.521V522.943Z" fill="#0A0A0A"/>
<path d="M622.242 162.556L614.025 131.921C613.087 128.483 609.559 126.428 606.076 127.322L592.455 130.983C589.374 131.787 586.203 130.224 584.864 127.322C580.398 117.586 574.994 108.342 568.832 99.6786C566.956 97.0885 567.179 93.5605 569.457 91.283L579.46 81.2797C582.006 78.7343 582.006 74.6258 579.46 72.125L557.042 49.7069C554.497 47.1615 550.388 47.1615 547.887 49.7069L537.884 59.7102C535.607 61.9877 532.079 62.211 529.488 60.3354C520.825 54.1727 511.625 48.7691 501.846 44.3034C498.943 42.9637 497.38 39.793 498.184 36.7116L501.846 23.0911C502.783 19.6525 500.729 16.0799 497.246 15.1421L466.611 6.92512C463.172 5.98731 459.6 8.04155 458.662 11.5248L455 25.1453C454.151 28.2267 451.249 30.1916 448.033 29.879C442.764 29.3431 437.449 29.0752 432.046 29.0752C426.642 29.0752 421.328 29.3431 416.059 29.879C412.888 30.1916 409.94 28.2267 409.092 25.1453L405.43 11.5248C404.492 8.08621 400.964 6.03197 397.481 6.92512L366.846 15.1421C363.407 16.0799 361.353 19.6078 362.246 23.0911L365.908 36.7116C366.712 39.793 365.149 42.9637 362.246 44.3034C352.511 48.7691 343.267 54.1727 334.603 60.3354C332.013 62.211 328.485 61.9877 326.208 59.7102L316.205 49.7069C313.659 47.1615 309.551 47.1615 307.05 49.7069L284.632 72.125C282.086 74.6704 282.086 78.7789 284.632 81.2797L294.635 91.283C296.913 93.5605 297.136 97.0885 295.26 99.6786C289.097 108.297 283.694 117.542 279.228 127.322C277.888 130.224 274.718 131.787 271.636 130.983L258.016 127.322C254.577 126.384 251.005 128.438 250.067 131.921L241.85 162.556C240.912 165.995 242.966 169.567 246.45 170.505L260.07 174.167C263.152 175.016 265.116 177.918 264.804 181.134C264.268 186.403 264 191.718 264 197.121C264 203.373 264.715 212.349 265.429 218.557L300.396 209.982C299.86 205.07 299.771 202.078 299.771 197.121C299.771 124.24 359.076 64.9798 431.912 64.9798C504.748 64.9798 564.098 124.285 564.098 197.121C564.098 202.078 564.009 205.07 563.473 209.982L598.44 218.557C599.154 212.349 599.869 203.373 599.869 197.121C599.869 191.718 599.601 186.403 599.065 181.134C598.752 177.963 600.717 175.016 603.798 174.167L617.419 170.505C620.858 169.567 622.912 166.04 622.019 162.556H622.242Z" stroke="#0A0A0A" stroke-width="12.6197" stroke-linecap="round" stroke-linejoin="round"/>
<path d="M432.226 216.548C442.98 216.548 451.697 207.83 451.697 197.077C451.697 186.324 442.98 177.606 432.226 177.606C421.473 177.606 412.756 186.324 412.756 197.077C412.756 207.83 421.473 216.548 432.226 216.548Z" stroke="#0A0A0A" stroke-width="12.6197" stroke-miterlimit="10"/>
<path d="M417.305 304.389C412.571 277.996 389.171 254.417 355.499 254.417C321.828 254.417 298.472 277.951 293.693 304.389" stroke="#0A0A0A" stroke-width="12.6197" stroke-miterlimit="10" stroke-linecap="round"/>
<path d="M570.042 304.389C565.309 277.996 541.908 254.417 508.237 254.417C474.565 254.417 451.209 277.951 446.431 304.389" stroke="#0A0A0A" stroke-width="12.6197" stroke-miterlimit="10" stroke-linecap="round"/>
<path d="M600.718 304.391C606.479 291.887 617.062 279.428 636.578 279.428C656.093 279.428 666.722 291.932 672.438 304.391" stroke="#0A0A0A" stroke-width="12.6197" stroke-miterlimit="10" stroke-linecap="round"/>
<path d="M191.395 304.391C197.155 291.887 207.739 279.428 227.254 279.428C246.77 279.428 257.398 291.932 263.114 304.391" stroke="#0A0A0A" stroke-width="12.6197" stroke-miterlimit="10" stroke-linecap="round"/>
<path d="M449.822 188.858L551.998 141.209C538.243 111.735 513.905 88.1558 483.851 75.3838L439.818 179.123C444.239 180.999 447.767 184.482 449.822 188.858Z" fill="#00C141" stroke="#0A0A0A" stroke-width="12.6197" stroke-linecap="round" stroke-linejoin="round"/>
<path d="M432.234 177.608C434.913 177.608 437.503 178.144 439.826 179.171L483.858 75.432C468.004 68.6887 450.543 64.9375 432.189 64.9375C413.835 64.9375 396.419 68.6887 380.521 75.432L424.553 179.171C426.875 178.189 429.465 177.608 432.145 177.608H432.234Z" fill="#0043C7" stroke="#0A0A0A" stroke-width="12.6197" stroke-linecap="round" stroke-linejoin="round"/>
<path d="M424.585 179.123L380.553 75.3838C350.498 88.1558 326.204 111.735 312.405 141.209L414.582 188.858C416.591 184.527 420.164 180.999 424.585 179.123Z" fill="#D50000" stroke="#0A0A0A" stroke-width="12.6197" stroke-linecap="round" stroke-linejoin="round"/>
<path d="M412.706 197.075C412.706 194.127 413.42 191.359 414.581 188.858L312.45 141.253C304.501 158.223 299.99 177.113 299.99 197.075C299.99 201.406 300.214 205.694 300.615 209.936C333.126 203.103 370.37 198.459 412.706 197.343C412.706 197.253 412.706 197.164 412.706 197.075Z" fill="#F8DF00" stroke="#0A0A0A" stroke-width="12.6197" stroke-linecap="round" stroke-linejoin="round"/>
<path d="M551.909 141.253L449.777 188.858C450.938 191.359 451.653 194.127 451.653 197.075C451.653 197.164 451.653 197.253 451.653 197.343C493.988 198.459 531.233 203.148 563.743 209.936C564.145 205.694 564.368 201.406 564.368 197.075C564.368 177.113 559.858 158.223 551.909 141.253Z" fill="#F8DF00" stroke="#0A0A0A" stroke-width="12.6197" stroke-linecap="round" stroke-linejoin="round"/>
<path d="M412.756 197.301C193.532 203.017 111.095 304.389 111.095 304.389" stroke="#0A0A0A" stroke-width="12.6197" stroke-miterlimit="10" stroke-linecap="round"/>
<path d="M753.317 304.389C753.317 304.389 670.925 203.017 451.701 197.301" stroke="#0A0A0A" stroke-width="12.6197" stroke-miterlimit="10" stroke-linecap="round"/>
<path d="M7.4528 463.483C6.81168 463.483 6.30795 463.3 5.9416 462.933C5.57524 462.567 5.39207 462.063 5.39207 461.422V369.376C5.39207 368.735 5.57524 368.232 5.9416 367.865C6.30795 367.499 6.81168 367.316 7.4528 367.316H42.7599C50.1785 367.316 56.7271 368.598 62.4055 371.162C68.1755 373.727 72.6176 377.345 75.7315 382.016C78.8455 386.686 80.4025 392.09 80.4025 398.227V432.572C80.4025 438.708 78.8455 444.112 75.7315 448.783C72.6176 453.454 68.1755 457.072 62.4055 459.636C56.7271 462.201 50.1785 463.483 42.7599 463.483H7.4528ZM31.2198 440.678C31.2198 441.135 31.4488 441.364 31.9068 441.364H43.7216C46.8356 441.364 49.4 440.174 51.415 437.793C53.4299 435.32 54.4832 432.114 54.5747 428.176V402.623C54.5747 398.685 53.5673 395.525 51.5523 393.143C49.5374 390.671 46.8814 389.434 43.5842 389.434H31.9068C31.4488 389.434 31.2198 389.663 31.2198 390.121V440.678ZM159.969 387.373C159.969 388.015 159.786 388.518 159.42 388.885C159.053 389.251 158.549 389.434 157.908 389.434H116.831C116.373 389.434 116.144 389.663 116.144 390.121V403.035C116.144 403.493 116.373 403.722 116.831 403.722H142.247C142.888 403.722 143.392 403.905 143.758 404.271C144.124 404.638 144.308 405.141 144.308 405.783V423.642C144.308 424.283 144.124 424.787 143.758 425.153C143.392 425.52 142.888 425.703 142.247 425.703H116.831C116.373 425.703 116.144 425.932 116.144 426.39V440.678C116.144 441.135 116.373 441.364 116.831 441.364H157.908C158.549 441.364 159.053 441.548 159.42 441.914C159.786 442.28 159.969 442.784 159.969 443.425V461.422C159.969 462.063 159.786 462.567 159.42 462.933C159.053 463.3 158.549 463.483 157.908 463.483H92.3773C91.7362 463.483 91.2324 463.3 90.8661 462.933C90.4997 462.567 90.3165 462.063 90.3165 461.422V369.376C90.3165 368.735 90.4997 368.232 90.8661 367.865C91.2324 367.499 91.7362 367.316 92.3773 367.316H157.908C158.549 367.316 159.053 367.499 159.42 367.865C159.786 368.232 159.969 368.735 159.969 369.376V387.373ZM195.869 463.483C195.319 463.483 194.815 463.346 194.357 463.071C193.9 462.704 193.625 462.246 193.533 461.697L166.469 369.651C166.377 369.468 166.332 369.239 166.332 368.964C166.332 367.865 166.973 367.316 168.255 367.316H191.747C192.938 367.316 193.671 367.911 193.945 369.102L207.684 427.077C207.775 427.443 207.912 427.626 208.096 427.626C208.279 427.626 208.416 427.443 208.508 427.077L221.834 369.102C222.109 367.911 222.841 367.316 224.032 367.316H246.975C247.707 367.316 248.211 367.545 248.486 368.003C248.852 368.369 248.944 368.918 248.761 369.651L221.422 461.697C221.33 462.246 221.055 462.704 220.597 463.071C220.139 463.346 219.636 463.483 219.086 463.483H195.869ZM288.944 465.131C281.342 465.131 274.61 463.62 268.749 460.598C262.979 457.484 258.491 453.179 255.285 447.684C252.08 442.097 250.477 435.64 250.477 428.313V402.485C250.477 395.342 252.08 389.022 255.285 383.527C258.491 378.031 262.979 373.773 268.749 370.75C274.61 367.728 281.342 366.217 288.944 366.217C296.637 366.217 303.369 367.728 309.139 370.75C315.001 373.773 319.534 378.031 322.74 383.527C325.945 389.022 327.548 395.342 327.548 402.485V428.313C327.548 435.64 325.945 442.097 322.74 447.684C319.534 453.179 315.001 457.484 309.139 460.598C303.369 463.62 296.637 465.131 288.944 465.131ZM288.944 443.013C292.79 443.013 295.859 441.777 298.148 439.304C300.53 436.739 301.72 433.351 301.72 429.137V402.211C301.72 397.998 300.53 394.655 298.148 392.182C295.859 389.617 292.79 388.335 288.944 388.335C285.189 388.335 282.12 389.617 279.739 392.182C277.449 394.655 276.305 397.998 276.305 402.211V429.137C276.305 433.351 277.449 436.739 279.739 439.304C282.12 441.777 285.189 443.013 288.944 443.013ZM378.942 367.316C385.444 367.316 391.169 368.644 396.114 371.3C401.06 373.864 404.861 377.574 407.517 382.428C410.265 387.19 411.639 392.685 411.639 398.913C411.639 405.05 410.219 410.454 407.38 415.125C404.541 419.796 400.556 423.413 395.428 425.978C390.299 428.542 384.391 429.824 377.705 429.824H363.143C362.685 429.824 362.456 430.053 362.456 430.511V461.422C362.456 462.063 362.273 462.567 361.906 462.933C361.54 463.3 361.036 463.483 360.395 463.483H338.689C338.048 463.483 337.544 463.3 337.178 462.933C336.811 462.567 336.628 462.063 336.628 461.422V369.376C336.628 368.735 336.811 368.232 337.178 367.865C337.544 367.499 338.048 367.316 338.689 367.316H378.942ZM374.683 409.217C378.072 409.217 380.773 408.347 382.788 406.607C384.895 404.775 385.948 402.394 385.948 399.463C385.948 396.441 384.895 394.014 382.788 392.182C380.773 390.35 378.072 389.434 374.683 389.434H363.143C362.685 389.434 362.456 389.663 362.456 390.121V408.53C362.456 408.988 362.685 409.217 363.143 409.217H374.683ZM455.822 464.582C448.128 464.582 441.397 463.346 435.627 460.873C429.857 458.308 425.369 454.69 422.163 450.019C419.049 445.349 417.492 439.945 417.492 433.808V431.885C417.492 431.244 417.675 430.74 418.042 430.374C418.408 430.008 418.912 429.824 419.553 429.824H440.847C441.488 429.824 441.992 430.008 442.358 430.374C442.725 430.74 442.908 431.244 442.908 431.885V432.709C442.908 435.274 444.236 437.564 446.892 439.578C449.64 441.502 453.257 442.463 457.745 442.463C461.134 442.463 463.561 441.777 465.026 440.403C466.492 438.937 467.225 437.335 467.225 435.594C467.225 433.579 466.309 432.068 464.477 431.061C462.645 430.053 459.302 428.817 454.448 427.352L450.464 426.252C441.397 423.505 433.795 419.841 427.659 415.262C421.522 410.683 418.454 404.042 418.454 395.342C418.454 389.572 420.011 384.488 423.125 380.092C426.239 375.604 430.498 372.17 435.901 369.789C441.397 367.407 447.533 366.217 454.311 366.217C461.454 366.217 467.911 367.545 473.681 370.201C479.543 372.857 484.122 376.612 487.42 381.466C490.808 386.32 492.503 391.861 492.503 398.089V399.326C492.503 399.967 492.32 400.47 491.953 400.837C491.587 401.203 491.083 401.386 490.442 401.386H469.148C468.507 401.386 468.003 401.203 467.637 400.837C467.27 400.47 467.087 399.967 467.087 399.326V399.188C467.087 396.441 465.851 393.968 463.378 391.77C460.905 389.48 457.562 388.335 453.349 388.335C450.418 388.335 448.083 388.93 446.342 390.121C444.694 391.312 443.87 392.96 443.87 395.067C443.87 396.715 444.465 398.135 445.656 399.326C446.938 400.425 448.861 401.524 451.426 402.623C453.99 403.63 457.928 404.958 463.24 406.607C463.973 406.882 467.179 407.889 472.857 409.629C478.627 411.278 483.436 414.346 487.282 418.834C491.129 423.23 493.052 428.588 493.052 434.908C493.052 441.044 491.495 446.356 488.381 450.844C485.267 455.24 480.917 458.629 475.33 461.01C469.743 463.391 463.24 464.582 455.822 464.582ZM531.623 463.483C530.982 463.483 530.478 463.3 530.112 462.933C529.746 462.567 529.563 462.063 529.563 461.422V369.376C529.563 368.735 529.746 368.232 530.112 367.865C530.478 367.499 530.982 367.316 531.623 367.316H566.93C574.349 367.316 580.898 368.598 586.576 371.162C592.346 373.727 596.788 377.345 599.902 382.016C603.016 386.686 604.573 392.09 604.573 398.227V432.572C604.573 438.708 603.016 444.112 599.902 448.783C596.788 453.454 592.346 457.072 586.576 459.636C580.898 462.201 574.349 463.483 566.93 463.483H531.623ZM555.39 440.678C555.39 441.135 555.619 441.364 556.077 441.364H567.892C571.006 441.364 573.571 440.174 575.585 437.793C577.6 435.32 578.654 432.114 578.745 428.176V402.623C578.745 398.685 577.738 395.525 575.723 393.143C573.708 390.671 571.052 389.434 567.755 389.434H556.077C555.619 389.434 555.39 389.663 555.39 390.121V440.678ZM672.208 463.483C670.926 463.483 670.147 462.888 669.872 461.697L666.85 450.981C666.667 450.615 666.438 450.432 666.163 450.432H637.038C636.763 450.432 636.534 450.615 636.351 450.981L633.329 461.697C633.054 462.888 632.275 463.483 630.993 463.483H607.501C605.852 463.483 605.257 462.704 605.715 461.147L634.703 368.964C635.069 367.865 635.847 367.316 637.038 367.316H666.163C667.354 367.316 668.132 367.865 668.498 368.964L697.486 461.147C697.578 461.331 697.623 461.605 697.623 461.972C697.623 462.979 696.982 463.483 695.7 463.483H672.208ZM642.396 429.824C642.304 430.374 642.488 430.649 642.945 430.649H660.118C660.668 430.649 660.851 430.374 660.668 429.824L651.875 399.051C651.784 398.776 651.646 398.639 651.463 398.639C651.28 398.639 651.143 398.776 651.051 399.051L642.396 429.824ZM720.873 463.208C720.232 463.208 719.728 463.025 719.362 462.659C718.996 462.292 718.812 461.789 718.812 461.147V430.786L718.675 429.962L690.649 369.789L690.374 368.689C690.374 367.774 690.97 367.316 692.16 367.316H715.79C716.981 367.316 717.805 367.865 718.263 368.964L731.314 401.798C731.589 402.44 731.864 402.44 732.138 401.798L745.19 368.964C745.648 367.865 746.472 367.316 747.663 367.316H771.43C772.62 367.316 773.216 367.774 773.216 368.689L772.941 369.789L744.64 429.962C744.549 430.145 744.503 430.42 744.503 430.786V461.147C744.503 461.789 744.32 462.292 743.953 462.659C743.587 463.025 743.083 463.208 742.442 463.208H720.873ZM812.827 464.582C805.133 464.582 798.402 463.346 792.632 460.873C786.861 458.308 782.374 454.69 779.168 450.019C776.054 445.349 774.497 439.945 774.497 433.808V431.885C774.497 431.244 774.68 430.74 775.047 430.374C775.413 430.008 775.917 429.824 776.558 429.824H797.852C798.493 429.824 798.997 430.008 799.363 430.374C799.73 430.74 799.913 431.244 799.913 431.885V432.709C799.913 435.274 801.241 437.564 803.897 439.578C806.644 441.502 810.262 442.463 814.75 442.463C818.139 442.463 820.566 441.777 822.031 440.403C823.497 438.937 824.229 437.335 824.229 435.594C824.229 433.579 823.313 432.068 821.482 431.061C819.65 430.053 816.307 428.817 811.453 427.352L807.469 426.252C798.402 423.505 790.8 419.841 784.663 415.262C778.527 410.683 775.459 404.042 775.459 395.342C775.459 389.572 777.016 384.488 780.13 380.092C783.244 375.604 787.503 372.17 792.906 369.789C798.402 367.407 804.538 366.217 811.315 366.217C818.459 366.217 824.916 367.545 830.686 370.201C836.548 372.857 841.127 376.612 844.424 381.466C847.813 386.32 849.508 391.861 849.508 398.089V399.326C849.508 399.967 849.324 400.47 848.958 400.837C848.592 401.203 848.088 401.386 847.447 401.386H826.153C825.512 401.386 825.008 401.203 824.641 400.837C824.275 400.47 824.092 399.967 824.092 399.326V399.188C824.092 396.441 822.855 393.968 820.383 391.77C817.91 389.48 814.567 388.335 810.354 388.335C807.423 388.335 805.087 388.93 803.347 390.121C801.699 391.312 800.874 392.96 800.874 395.067C800.874 396.715 801.47 398.135 802.66 399.326C803.943 400.425 805.866 401.524 808.43 402.623C810.995 403.63 814.933 404.958 820.245 406.607C820.978 406.882 824.184 407.889 829.862 409.629C835.632 411.278 840.44 414.346 844.287 418.834C848.134 423.23 850.057 428.588 850.057 434.908C850.057 441.044 848.5 446.356 845.386 450.844C842.272 455.24 837.922 458.629 832.335 461.01C826.748 463.391 820.245 464.582 812.827 464.582Z" fill="#0A0A0A"/>
</svg>
